<svg width="1200" height="900" viewBox="0 0 1200 900" fill="none" xmlns="http://www.w3.org/2000/svg">
  <defs>
    <linearGradient id="bg" x1="96" y1="88" x2="1091" y2="816" gradientUnits="userSpaceOnUse">
      <stop stop-color="#FFF9EF"/>
      <stop offset="1" stop-color="#F0E7DA"/>
    </linearGradient>
    <linearGradient id="gold" x1="278" y1="194" x2="969" y2="712" gradientUnits="userSpaceOnUse">
      <stop stop-color="#D2A66C"/>
      <stop offset="1" stop-color="#8C3B3B"/>
    </linearGradient>
  </defs>
  <rect width="1200" height="900" rx="48" fill="url(#bg)"/>
  <rect x="68" y="64" width="1064" height="772" rx="40" stroke="#131313" stroke-opacity="0.08"/>
  <rect x="120" y="132" width="420" height="520" rx="30" fill="#131313"/>
  <rect x="160" y="176" width="340" height="18" rx="9" fill="#FFF9EF" fill-opacity="0.12"/>
  <rect x="160" y="222" width="296" height="74" rx="20" fill="#FFF9EF" fill-opacity="0.08"/>
  <rect x="160" y="324" width="248" height="18" rx="9" fill="#FFF9EF" fill-opacity="0.12"/>
  <rect x="160" y="360" width="310" height="18" rx="9" fill="#FFF9EF" fill-opacity="0.12"/>
  <rect x="160" y="396" width="282" height="18" rx="9" fill="#FFF9EF" fill-opacity="0.12"/>
  <rect x="160" y="470" width="168" height="52" rx="26" fill="#D2A66C"/>
  <rect x="560" y="132" width="520" height="300" rx="30" fill="#FCF7EE" stroke="#131313" stroke-opacity="0.08"/>
  <path d="M622 346C734 304 790 254 902 212C972 186 1024 182 1040 182" stroke="url(#gold)" stroke-width="6" stroke-linecap="round" stroke-dasharray="1 16"/>
  <circle cx="622" cy="346" r="10" fill="#D2A66C"/>
  <circle cx="902" cy="212" r="10" fill="#8C3B3B"/>
  <rect x="618" y="194" width="154" height="104" rx="26" fill="#131313"/>
  <rect x="790" y="194" width="248" height="104" rx="26" fill="#F3ECE0"/>
  <rect x="618" y="470" width="460" height="246" rx="30" fill="#FDF8EF" stroke="#131313" stroke-opacity="0.08"/>
  <rect x="652" y="512" width="130" height="130" rx="24" fill="#131313"/>
  <rect x="808" y="512" width="236" height="16" rx="8" fill="#131313" fill-opacity="0.1"/>
  <rect x="808" y="546" width="206" height="16" rx="8" fill="#131313" fill-opacity="0.1"/>
  <rect x="808" y="580" width="160" height="16" rx="8" fill="#131313" fill-opacity="0.1"/>
  <rect x="808" y="628" width="138" height="44" rx="22" fill="#8C3B3B"/>
</svg>
